# xmcd CD database file
#
# Track frame offsets:
#	150
#	13668
#	35235
#	47583
#	66385
#	84735
#	101286
#	113491
#	133824
#	152374
#	166746
#	184634
#	198116
#	215569
#	231647
#	254829
#	278493
#
# Disc length: 4580 seconds
#
# Revision: 0
# Processed by: cddbd v1.5.1PL0 Copyright (c) Steve Scherf et al.
# Submitted via: CDex 1.51
#
DISCID=eb11e211
DTITLE=Dm Bob and Country Jem - Bum Steer
DYEAR=2005
DGENRE=Country
TTITLE0=Bar-B-Q Bob
TTITLE1=too Late for Tequila
TTITLE2=Girlfriend stole my Alien
TTITLE3=Lou short for Loser
TTITLE4=Groovy Situation
TTITLE5=Rokit Scyntist
TTITLE6=Space Hog
TTITLE7=who put the cunt in cuntrey
TTITLE8=How can Evil look so good
TTITLE9=I've been your good thing
TTITLE10=like it that Way
TTITLE11=Pachinko
TTITLE12=Rocket ship
TTITLE13=Astro Pad
TTITLE14=Dixie Cannonball
TTITLE15=Home on the Moon
TTITLE16=Data Track
EXTD=YEAR: 2005
EXTT0=
EXTT1=
EXTT2=
EXTT3=
EXTT4=
EXTT5=
EXTT6=
EXTT7=
EXTT8=
EXTT9=
EXTT10=
EXTT11=
EXTT12=
EXTT13=
EXTT14=
EXTT15=
EXTT16=
PLAYORDER=
